<svg width="140" height="22" viewBox="0 0 140 22" fill="none" xmlns="http://www.w3.org/2000/svg">
<path d="M8.81052 2.54C10.4399 2.54 11.8612 2.86067 13.0745 3.502C14.2879 4.14333 15.2239 5.09667 15.8825 6.362C16.5585 7.61 16.8965 9.12667 16.8965 10.912V21H13.5165V16.32H4.05252V21H0.724524V10.912C0.724524 9.12667 1.05386 7.61 1.71252 6.362C2.38852 5.09667 3.33319 4.14333 4.54652 3.502C5.75986 2.86067 7.18119 2.54 8.81052 2.54ZM13.5165 13.486V10.6C13.5165 8.91867 13.1005 7.65333 12.2685 6.804C11.4365 5.93733 10.2752 5.504 8.78452 5.504C7.29386 5.504 6.13252 5.93733 5.30052 6.804C4.46852 7.65333 4.05252 8.91867 4.05252 10.6V13.486H13.5165ZM27.6827 21.182C26.244 21.182 24.9527 20.8787 23.8087 20.272C22.6647 19.6653 21.772 18.8247 21.1307 17.75C20.4893 16.658 20.1687 15.4273 20.1687 14.058C20.1687 12.6887 20.4893 11.4667 21.1307 10.392C21.772 9.31733 22.656 8.47667 23.7827 7.87C24.9267 7.26333 26.2267 6.96 27.6827 6.96C29.052 6.96 30.248 7.23733 31.2707 7.792C32.3107 8.34667 33.0907 9.144 33.6107 10.184L31.1147 11.64C30.716 10.9987 30.2133 10.522 29.6067 10.21C29.0173 9.88067 28.3673 9.716 27.6567 9.716C26.4433 9.716 25.438 10.1147 24.6407 10.912C23.8433 11.692 23.4447 12.7407 23.4447 14.058C23.4447 15.3753 23.8347 16.4327 24.6147 17.23C25.412 18.01 26.426 18.4 27.6567 18.4C28.3673 18.4 29.0173 18.244 29.6067 17.932C30.2133 17.6027 30.716 17.1173 31.1147 16.476L33.6107 17.932C33.0733 18.972 32.2847 19.778 31.2447 20.35C30.222 20.9047 29.0347 21.182 27.6827 21.182ZM44.0931 20.246C43.7118 20.558 43.2438 20.792 42.6891 20.948C42.1518 21.104 41.5798 21.182 40.9731 21.182C39.4478 21.182 38.2691 20.7833 37.4371 19.986C36.6051 19.1887 36.1891 18.0273 36.1891 16.502V4.048H39.4391V7.22H43.1571V9.82H39.4391V16.424C39.4391 17.1 39.6038 17.62 39.9331 17.984C40.2798 18.3307 40.7565 18.504 41.3631 18.504C42.0911 18.504 42.6978 18.3133 43.1831 17.932L44.0931 20.246ZM46.7795 7.116H50.0295V21H46.7795V7.116ZM48.4175 4.828C47.8281 4.828 47.3341 4.646 46.9355 4.282C46.5368 3.90067 46.3375 3.43267 46.3375 2.878C46.3375 2.32333 46.5368 1.864 46.9355 1.5C47.3341 1.11867 47.8281 0.928 48.4175 0.928C49.0068 0.928 49.5008 1.11 49.8995 1.474C50.2981 1.82067 50.4975 2.26267 50.4975 2.8C50.4975 3.372 50.2981 3.85733 49.8995 4.256C49.5181 4.63733 49.0241 4.828 48.4175 4.828ZM67.2951 7.116L61.3411 21H57.9871L52.0331 7.116H55.4131L59.7291 17.412L64.1751 7.116H67.2951ZM75.5495 18.426C77.0575 18.426 78.3141 17.9233 79.3195 16.918L81.0355 18.92C80.4288 19.6653 79.6488 20.2287 78.6955 20.61C77.7421 20.9913 76.6675 21.182 75.4715 21.182C73.9461 21.182 72.6028 20.8787 71.4415 20.272C70.2801 19.6653 69.3788 18.8247 68.7375 17.75C68.1135 16.658 67.8015 15.4273 67.8015 14.058C67.8015 12.706 68.1048 11.4927 68.7115 10.418C69.3355 9.326 70.1848 8.47667 71.2595 7.87C72.3515 7.26333 73.5821 6.96 74.9515 6.96C76.2515 6.96 77.4301 7.246 78.4875 7.818C79.5621 8.37267 80.4115 9.17867 81.0355 10.236C81.6595 11.276 81.9715 12.498 81.9715 13.902L71.3375 15.982C71.6668 16.7793 72.1955 17.386 72.9235 17.802C73.6515 18.218 74.5268 18.426 75.5495 18.426ZM74.9515 9.56C73.7555 9.56 72.7848 9.95 72.0395 10.73C71.3115 11.51 70.9475 12.5587 70.9475 13.876V13.902L78.7995 12.394C78.5741 11.5447 78.1148 10.86 77.4215 10.34C76.7455 9.82 75.9221 9.56 74.9515 9.56Z" fill="#283130"/>
<path d="M93.3619 5.504C91.8019 5.504 90.6232 5.85067 89.8259 6.544C89.0286 7.23733 88.6299 8.26 88.6299 9.612V11.172H96.5599V14.032H88.6299V21H85.2499V9.612C85.2499 7.41067 85.9519 5.686 87.3559 4.438C88.7772 3.17267 90.7272 2.54 93.2059 2.54C94.2459 2.54 95.2166 2.65267 96.1179 2.878C97.0192 3.10333 97.8079 3.43267 98.4839 3.866L97.4179 6.622C96.3432 5.87667 94.9912 5.504 93.3619 5.504ZM106.78 18.426C108.288 18.426 109.545 17.9233 110.55 16.918L112.266 18.92C111.659 19.6653 110.879 20.2287 109.926 20.61C108.973 20.9913 107.898 21.182 106.702 21.182C105.177 21.182 103.833 20.8787 102.672 20.272C101.511 19.6653 100.609 18.8247 99.9679 17.75C99.3439 16.658 99.0319 15.4273 99.0319 14.058C99.0319 12.706 99.3353 11.4927 99.9419 10.418C100.566 9.326 101.415 8.47667 102.49 7.87C103.582 7.26333 104.813 6.96 106.182 6.96C107.482 6.96 108.661 7.246 109.718 7.818C110.793 8.37267 111.642 9.17867 112.266 10.236C112.89 11.276 113.202 12.498 113.202 13.902L102.568 15.982C102.897 16.7793 103.426 17.386 104.154 17.802C104.882 18.218 105.757 18.426 106.78 18.426ZM106.182 9.56C104.986 9.56 104.015 9.95 103.27 10.73C102.542 11.51 102.178 12.5587 102.178 13.876V13.902L110.03 12.394C109.805 11.5447 109.345 10.86 108.652 10.34C107.976 9.82 107.153 9.56 106.182 9.56ZM133.848 6.96C135.599 6.96 136.986 7.47133 138.008 8.494C139.031 9.49933 139.542 11.016 139.542 13.044V21H136.292V13.46C136.292 12.2467 136.024 11.3367 135.486 10.73C134.949 10.106 134.178 9.794 133.172 9.794C132.08 9.794 131.205 10.158 130.546 10.886C129.888 11.5967 129.558 12.6193 129.558 13.954V21H126.308V13.46C126.308 12.2467 126.04 11.3367 125.502 10.73C124.965 10.106 124.194 9.794 123.188 9.794C122.079 9.794 121.195 10.1493 120.536 10.86C119.895 11.5707 119.574 12.602 119.574 13.954V21H116.324V7.116H119.418V8.884C119.938 8.26 120.588 7.78333 121.368 7.454C122.148 7.12467 123.015 6.96 123.968 6.96C125.008 6.96 125.927 7.15933 126.724 7.558C127.539 7.93933 128.18 8.51133 128.648 9.274C129.22 8.546 129.957 7.98267 130.858 7.584C131.76 7.168 132.756 6.96 133.848 6.96Z" fill="#FFBE40"/>
</svg>
